<?xml version="1.0" standalone="no"?>
<!DOCTYPE svg PUBLIC "-//W3C//DTD SVG 20010904//EN"
 "http://www.w3.org/TR/2001/REC-SVG-20010904/DTD/svg10.dtd">
<svg version="1.0" xmlns="http://www.w3.org/2000/svg"
 width="533.000000pt" height="646.000000pt" viewBox="0 0 533.000000 646.000000"
 preserveAspectRatio="xMidYMid meet">

<g transform="translate(0.000000,646.000000) scale(0.100000,-0.100000)"
fill="#000000" stroke="none">
<path d="M2520 5681 c0 -5 9 -7 20 -4 18 5 20 0 20 -46 0 -39 4 -51 15 -51 12
0 15 13 15 55 l0 55 -35 0 c-19 0 -35 -4 -35 -9z"/>
<path d="M2674 5670 c-9 -9 -8 -18 2 -38 8 -15 14 -33 14 -39 0 -7 7 -13 16
-13 16 0 14 13 -10 73 -8 21 -14 25 -22 17z"/>
<path d="M2750 5671 c0 -5 9 -7 19 -4 18 5 19 2 10 -38 -6 -23 -12 -46 -16
-52 -3 -5 3 -7 13 -5 13 2 22 17 28 46 5 23 14 42 20 43 19 1 -28 18 -51 18
-13 1 -23 -3 -23 -8z"/>
<path d="M2464 5616 c8 -41 13 -52 26 -49 15 4 15 9 1 54 -21 68 -40 65 -27
-5z"/>
<path d="M2866 5603 c-19 -56 -20 -63 -3 -63 7 0 20 22 29 49 13 40 13 51 3
55 -9 3 -19 -11 -29 -41z"/>
<path d="M2330 5625 c7 -8 17 -15 23 -15 5 0 25 -11 43 -25 30 -23 52 -23 36
1 -14 21 -71 54 -92 54 -19 0 -20 -2 -10 -15z"/>
<path d="M2260 5612 c0 -6 5 -12 12 -14 13 -5 4 -38 -11 -38 -5 0 -13 9 -16
20 -3 11 -12 20 -20 20 -11 0 -10 -9 3 -50 9 -29 22 -50 30 -50 10 0 12 7 8
25 -7 29 -4 31 30 9 17 -12 28 -14 36 -6 7 7 4 12 -10 16 -14 5 -22 17 -24 39
-2 21 -9 33 -20 35 -10 2 -18 -1 -18 -6z"/>
<path d="M2933 5604 c-3 -9 1 -29 11 -44 20 -35 20 -37 -1 -43 -13 -4 -12 -5
5 -6 30 -1 39 25 18 59 -9 16 -16 31 -16 34 0 13 30 5 39 -11 6 -10 11 -13 11
-7 1 31 -56 47 -67 18z"/>
<path d="M2158 5563 c7 -3 16 -2 19 1 4 3 -2 6 -13 5 -11 0 -14 -3 -6 -6z"/>
<path d="M3060 5514 c0 -73 24 -70 28 4 2 42 0 52 -12 52 -13 0 -16 -12 -16
-56z"/>
<path d="M2119 5552 c-15 -3 -15 -7 2 -42 11 -21 19 -44 19 -50 0 -13 10 -13
30 0 10 6 11 10 3 10 -7 0 -13 8 -13 18 0 10 -4 22 -9 28 -5 5 -11 16 -13 24
-1 9 -10 14 -19 12z"/>
<path d="M2905 5541 c-3 -5 -1 -12 5 -16 5 -3 10 1 10 9 0 18 -6 21 -15 7z"/>
<path d="M2034 5524 c-8 -3 -6 -17 7 -44 11 -21 19 -44 19 -50 0 -5 7 -10 16
-10 17 0 13 22 -12 71 -7 15 -10 29 -7 33 7 7 -6 7 -23 0z"/>
<path d="M2160 5521 c0 -5 5 -13 10 -16 6 -3 10 -2 10 4 0 5 -4 13 -10 16 -5
3 -10 2 -10 -4z"/>
<path d="M3157 5471 l-23 -49 34 -17 c26 -12 38 -13 46 -5 8 9 7 11 -4 10 -31
-4 -40 1 -40 21 0 14 5 19 15 16 8 -4 17 -2 20 3 3 4 -1 10 -7 13 -10 3 -10 9
-1 25 10 16 9 21 -2 26 -10 3 -22 -10 -38 -43z"/>
<path d="M2207 5493 c-4 -3 -7 -11 -7 -17 0 -6 5 -5 12 2 6 6 9 14 7 17 -3 3
-9 2 -12 -2z"/>
<path d="M3230 5485 c7 -9 15 -13 17 -11 7 7 -7 26 -19 26 -6 0 -6 -6 2 -15z"/>
<path d="M1940 5418 c0 -34 3 -58 7 -54 4 4 6 24 5 44 -2 33 -1 35 11 20 8
-10 19 -18 25 -18 6 0 12 -4 14 -10 2 -5 9 -6 17 -1 10 7 4 17 -25 45 -22 19
-42 36 -46 36 -5 0 -8 -28 -8 -62z"/>
<path d="M3258 5420 c-18 -36 -21 -50 -12 -54 7 -3 19 5 28 17 l15 22 0 -26
c1 -15 9 -33 18 -40 15 -13 16 -11 10 17 -5 26 -3 33 13 37 24 6 26 30 4 48
-14 11 -15 10 -12 -6 2 -12 -4 -21 -14 -23 -20 -4 -24 18 -7 35 7 7 6 12 -4
16 -11 4 -23 -9 -39 -43z"/>
<path d="M1853 5427 c10 -9 15 -21 11 -31 -9 -23 -21 -20 -31 9 -5 17 -12 22
-21 16 -11 -7 -10 -17 8 -52 27 -54 26 -53 40 -44 8 5 8 11 -1 21 -16 20 -5
28 21 14 11 -6 29 -9 38 -7 13 3 11 6 -10 17 -20 9 -26 19 -25 39 2 21 -3 27
-23 29 -23 2 -24 2 -7 -11z"/>
<path d="M2335 5340 c-126 -54 -282 -119 -345 -145 -63 -27 -144 -60 -180 -75
-68 -29 -289 -122 -495 -208 -415 -174 -560 -235 -563 -237 -2 -1 6 -76 17
-166 11 -90 32 -267 46 -394 92 -835 177 -1202 379 -1642 207 -451 556 -889
1011 -1269 102 -86 321 -253 363 -278 13 -8 125 69 292 203 129 103 136 109
280 243 460 424 766 886 945 1423 123 367 181 693 255 1430 12 116 28 259 36
319 8 61 11 113 7 117 -5 4 -262 116 -573 249 -311 133 -614 264 -675 290
-253 111 -557 240 -563 239 -4 -1 -110 -45 -237 -99z m411 -21 l164 -72 0
-861 0 -861 -163 -163 c-89 -89 -166 -162 -170 -162 -4 0 -7 493 -7 1095 0
602 3 1095 6 1095 3 0 80 -32 170 -71z m-536 -931 c0 -461 0 -842 0 -848 0 -6
-85 -10 -235 -10 l-235 0 2 756 3 757 140 57 c77 31 176 73 220 93 44 20 86
35 93 34 10 -2 12 -171 12 -839z m835 797 c22 -9 67 -29 100 -45 33 -15 71
-31 85 -35 14 -4 34 -13 45 -19 11 -7 52 -25 90 -40 39 -15 75 -31 80 -35 6
-5 53 -25 105 -46 52 -20 129 -53 170 -72 94 -43 100 -46 180 -79 36 -14 90
-37 120 -51 30 -14 75 -33 100 -43 25 -10 71 -30 102 -44 31 -14 68 -30 82
-36 31 -12 32 -23 10 -187 -8 -65 -17 -138 -19 -163 -13 -157 -55 -534 -74
-665 -6 -38 -11 -73 -11 -77 0 -5 -288 -8 -640 -8 l-640 0 -1 825 c-1 454 -2
831 -3 838 -5 30 11 28 119 -18z m-650 -1835 l170 -170 -782 0 -781 0 -16 73
c-18 81 -46 235 -46 255 0 9 135 12 643 12 l642 0 170 -170z m1745 -190 c0
-17 -8 -50 -52 -207 l-31 -113 -571 0 -571 0 -162 162 c-90 90 -163 165 -163
168 0 3 349 5 775 5 682 0 775 -2 775 -15z m-1578 -1106 l-2 -1065 -48 32
c-45 31 -149 111 -239 185 l-43 35 0 797 0 797 163 163 c136 136 163 159 167
142 3 -12 4 -500 2 -1086z m-348 749 c8 -29 6 -1523 -1 -1536 -7 -12 -112 83
-300 271 l-173 174 0 559 0 559 234 0 234 0 6 -27z"/>
<path d="M3555 4735 c-35 -18 -67 -64 -88 -126 -8 -24 -18 -43 -21 -42 -43 10
-131 12 -164 4 -59 -16 -86 -54 -78 -111 5 -36 39 -102 66 -130 60 -62 63 -68
46 -94 -35 -54 -57 -134 -54 -195 2 -33 5 -59 8 -58 3 1 16 -5 29 -12 24 -13
118 -11 153 3 12 6 22 -4 43 -43 27 -49 70 -81 110 -81 47 0 95 49 126 129
l22 57 55 -9 c74 -13 154 5 176 38 27 41 20 99 -18 158 -18 29 -47 65 -64 80
l-30 29 35 76 c48 103 51 173 9 209 -25 21 -36 24 -85 20 -31 -2 -65 -7 -77
-11 -17 -6 -23 -2 -34 23 -14 35 -35 60 -70 84 -30 21 -56 21 -95 2z m75 -30
c26 -14 78 -91 68 -101 -3 -2 -32 -21 -65 -43 l-61 -39 -46 15 -45 15 15 37
c9 20 18 44 21 54 3 9 9 17 13 17 5 0 11 8 15 19 4 14 32 36 53 40 2 1 16 -6
32 -14z m258 -111 c32 -22 28 -91 -9 -166 -16 -31 -32 -59 -37 -62 -22 -13
-59 51 -75 129 -21 100 -21 94 6 105 35 14 91 11 115 -6z m-160 -75 c7 -28 10
-55 6 -60 -3 -5 0 -9 5 -9 6 0 11 -5 11 -10 0 -10 -27 3 -107 48 l-31 18 46
32 c26 17 50 31 53 32 3 0 11 -23 17 -51z m-300 12 c26 -16 -20 -201 -49 -201
-4 0 -11 -10 -14 -21 -7 -20 -11 -18 -51 26 -40 45 -84 120 -84 145 0 6 11 22
25 35 21 22 33 25 92 25 37 0 74 -4 81 -9z m101 -48 c-7 -7 -26 -23 -42 -35
l-30 -21 7 39 c10 53 12 54 47 42 24 -8 27 -13 18 -25z m104 -29 c29 -14 67
-37 85 -51 31 -23 32 -26 32 -97 l0 -73 -59 -56 c-33 -32 -62 -57 -66 -57 -12
0 -91 44 -132 73 l-43 30 0 70 0 69 62 59 c34 33 64 59 65 59 2 0 27 -12 56
-26z m175 -113 c12 -7 12 -12 1 -30 -19 -29 -25 -26 -24 9 0 32 3 34 23 21z
m-392 -89 c-4 -3 -12 0 -18 6 -9 9 -8 18 3 39 l14 27 3 -33 c2 -18 1 -36 -2
-39z m476 9 c41 -43 78 -111 78 -140 0 -41 -38 -61 -114 -61 -91 0 -97 5 -86
55 5 22 10 53 10 69 0 26 55 115 71 116 3 0 22 -17 41 -39z m-468 -86 c12 -62
29 -141 33 -151 5 -14 -49 -34 -93 -34 -52 0 -78 31 -70 86 5 43 38 126 58
151 13 16 67 -23 72 -52z m90 -37 c22 -13 43 -26 46 -29 3 -3 11 -8 18 -10 7
-2 -9 -18 -35 -36 -27 -17 -51 -28 -55 -25 -8 8 -27 122 -20 122 2 0 23 -10
46 -22z m226 -7 c0 -9 -6 -25 -12 -34 -11 -13 -17 -14 -36 -3 l-23 12 27 27
c28 28 44 28 44 -2z m-22 -86 c2 -2 -10 -33 -27 -69 -48 -103 -106 -119 -158
-43 -33 48 -38 67 -19 67 9 0 16 5 16 10 0 6 6 10 13 10 6 0 29 13 50 29 36
28 38 28 80 14 23 -8 43 -16 45 -18z"/>
<path d="M3542 4364 c-18 -12 -22 -25 -22 -64 0 -42 4 -52 25 -66 35 -23 93
-21 117 4 27 27 29 93 4 121 -23 26 -91 29 -124 5z"/>
<path d="M3363 5370 c-29 -66 -6 -74 28 -9 22 39 24 49 12 53 -8 4 -15 6 -16
6 -1 0 -12 -23 -24 -50z"/>
<path d="M1760 5390 c-13 -8 -12 -10 3 -10 9 0 17 5 17 10 0 12 -1 12 -20 0z"/>
<path d="M1714 5374 c-13 -5 31 -104 46 -104 14 0 13 8 -7 63 -17 47 -19 49
-39 41z"/>
<path d="M3445 5338 c-22 -51 -23 -60 -10 -65 10 -3 48 75 47 94 -2 23 -21 8
-37 -29z"/>
<path d="M3505 5350 c3 -5 8 -10 11 -10 2 0 4 5 4 10 0 6 -5 10 -11 10 -5 0
-7 -4 -4 -10z"/>
<path d="M1765 5340 c-3 -5 -1 -10 4 -10 6 0 11 5 11 10 0 6 -2 10 -4 10 -3 0
-8 -4 -11 -10z"/>
<path d="M1621 5331 c-9 -6 -7 -10 8 -14 12 -3 21 -1 21 3 0 14 -15 19 -29 11z"/>
<path d="M3551 5316 c-6 -7 -9 -21 -5 -30 3 -9 2 -16 -4 -16 -14 0 -2 -48 14
-54 11 -4 14 7 14 54 0 33 -2 60 -4 60 -2 0 -9 -6 -15 -14z"/>
<path d="M1583 5313 c-8 -3 -6 -18 8 -51 24 -56 22 -54 42 -46 15 5 15 8 2 21
-19 19 -19 37 -1 30 10 -4 13 -1 10 8 -3 8 -12 11 -20 8 -8 -3 -17 3 -21 14
-5 11 -13 18 -20 16z"/>
<path d="M3623 5293 c22 -6 21 -15 -3 -62 -15 -31 -17 -40 -6 -44 8 -3 21 12
35 40 18 37 24 43 36 33 8 -7 15 -8 15 -3 0 11 -65 44 -83 42 -7 -1 -4 -3 6
-6z"/>
<path d="M3485 5260 c-3 -5 -1 -10 4 -10 6 0 11 5 11 10 0 6 -2 10 -4 10 -3 0
-8 -4 -11 -10z"/>
<path d="M1466 5245 c4 -8 14 -15 23 -15 9 0 31 -9 50 -21 35 -21 45 -21 36 2
-5 14 -79 49 -102 49 -7 0 -10 -7 -7 -15z"/>
<path d="M1666 5245 c-3 -8 -1 -15 4 -15 6 0 10 7 10 15 0 8 -2 15 -4 15 -2 0
-6 -7 -10 -15z"/>
<path d="M1413 5244 c-15 -7 27 -103 45 -104 9 0 11 7 6 22 -9 30 -34 88 -37
87 -1 0 -7 -3 -14 -5z"/>
<path d="M3702 5201 c-16 -40 -18 -51 -7 -55 8 -3 17 4 20 15 4 12 13 18 20
15 7 -2 16 1 19 9 3 9 0 12 -10 8 -18 -7 -18 11 1 30 13 13 13 16 -1 21 -9 3
-17 6 -18 6 -2 0 -13 -22 -24 -49z"/>
<path d="M3776 5217 c3 -10 9 -15 12 -12 3 3 0 11 -7 18 -10 9 -11 8 -5 -6z"/>
<path d="M1346 5201 c-3 -5 1 -12 9 -15 22 -8 35 -47 22 -71 -10 -20 -10 -20
12 -1 26 24 27 50 1 76 -22 22 -36 25 -44 11z"/>
<path d="M1309 5192 c-15 -3 -15 -7 2 -42 11 -21 19 -44 19 -50 0 -5 7 -10 16
-10 17 0 17 5 -8 70 -9 24 -18 34 -29 32z"/>
<path d="M3816 5185 c-4 -11 -2 -14 6 -9 8 5 9 -6 5 -40 -5 -36 -4 -47 6 -43
15 5 16 99 1 104 -6 2 -14 -3 -18 -12z"/>
<path d="M1496 5175 c4 -8 11 -15 16 -15 6 0 5 6 -2 15 -7 8 -14 15 -16 15 -2
0 -1 -7 2 -15z"/>
<path d="M1248 5153 c7 -3 16 -2 19 1 4 3 -2 6 -13 5 -11 0 -14 -3 -6 -6z"/>
<path d="M3894 5133 c-4 -16 -13 -38 -21 -49 -12 -18 -12 -22 0 -27 15 -6 61
78 52 94 -11 17 -25 9 -31 -18z"/>
<path d="M1204 5144 c-8 -3 -6 -17 7 -44 11 -21 19 -44 19 -51 0 -6 7 -8 16
-5 9 3 17 6 20 6 2 0 -5 16 -16 35 -11 20 -20 42 -20 50 0 15 -6 17 -26 9z"/>
<path d="M3730 5130 c19 -13 30 -13 30 0 0 6 -10 10 -22 10 -19 0 -20 -2 -8
-10z"/>
<path d="M1160 5120 c0 -5 5 -10 11 -10 5 0 7 5 4 10 -3 6 -8 10 -11 10 -2 0
-4 -4 -4 -10z"/>
<path d="M1103 5094 c-15 -24 -15 -29 -2 -53 10 -18 24 -27 44 -28 17 -1 23 0
15 3 -24 10 -40 36 -40 65 0 15 6 30 13 32 9 4 9 6 0 6 -7 1 -20 -11 -30 -25z"/>
<path d="M1250 5111 c0 -5 5 -13 10 -16 6 -3 10 -2 10 4 0 5 -4 13 -10 16 -5
3 -10 2 -10 -4z"/>
<path d="M3980 5090 c-11 -11 -20 -24 -20 -30 0 -17 42 -90 52 -90 5 0 6 5 3
10 -3 6 2 13 12 17 50 18 66 54 37 89 -11 13 -14 14 -11 3 8 -26 -20 -79 -43
-79 -13 0 -20 7 -20 20 0 29 21 69 39 73 10 3 8 5 -6 6 -13 0 -32 -8 -43 -19z"/>
<path d="M4478 5103 c7 -3 16 -2 19 1 4 3 -2 6 -13 5 -11 0 -14 -3 -6 -6z"/>
<path d="M1297 5083 c-4 -3 -7 -11 -7 -17 0 -6 5 -5 12 2 6 6 9 14 7 17 -3 3
-9 2 -12 -2z"/>
<path d="M4098 5015 c-15 -40 -15 -46 -2 -60 9 -8 23 -14 32 -14 15 1 15 2 0
6 -22 5 -23 23 -4 68 13 31 12 45 -4 45 -3 0 -13 -20 -22 -45z"/>
<path d="M990 5040 c0 -7 27 -72 36 -88 2 -2 12 -1 23 3 20 6 20 6 1 25 -11
11 -22 31 -26 45 -6 23 -34 36 -34 15z"/>
<path d="M4618 5043 c7 -3 16 -2 19 1 4 3 -2 6 -13 5 -11 0 -14 -3 -6 -6z"/>
<path d="M4176 5014 c-9 -24 -2 -26 12 -4 7 11 8 20 3 20 -5 0 -12 -7 -15 -16z"/>
<path d="M4680 5017 c35 -20 74 -32 66 -19 -3 5 -16 12 -28 15 -13 2 -32 8
-43 11 -12 5 -10 2 5 -7z"/>
<path d="M885 5011 c-3 -5 2 -28 11 -50 14 -34 21 -41 44 -41 16 0 31 4 34 8
3 5 -5 8 -17 8 -17 -1 -25 8 -37 42 -14 42 -24 51 -35 33z"/>
<path d="M1086 4983 c-6 -14 -5 -15 5 -6 7 7 10 15 7 18 -3 3 -9 -2 -12 -12z"/>
<path d="M4244 4978 c-4 -7 -8 -23 -7 -35 1 -13 1 -32 2 -43 1 -11 7 -20 14
-20 8 0 12 16 11 51 -2 55 -8 68 -20 47z"/>
<path d="M820 4974 c0 -3 7 -12 15 -20 8 -9 15 -29 15 -46 0 -26 2 -29 15 -18
21 17 19 46 -5 70 -19 19 -40 27 -40 14z"/>
<path d="M782 4962 c-15 -10 18 -102 37 -102 14 0 13 6 -11 72 -9 23 -18 34
-26 30z"/>
<path d="M4312 4913 c-16 -36 -18 -49 -9 -55 7 -4 15 1 19 13 5 13 14 19 23
15 8 -3 15 -1 15 4 0 6 -4 10 -10 10 -15 0 -12 16 5 33 13 13 13 16 -1 21 -9
3 -17 6 -18 6 -1 0 -12 -21 -24 -47z"/>
<path d="M4386 4925 c4 -8 8 -15 10 -15 2 0 4 7 4 15 0 8 -4 15 -10 15 -5 0
-7 -7 -4 -15z"/>
<path d="M4410 4873 c-16 -36 -18 -48 -8 -54 9 -6 18 5 30 34 20 48 22 67 8
67 -5 0 -18 -21 -30 -47z"/>
<path d="M624 4884 c3 -9 6 -18 6 -20 0 -3 4 -2 10 1 5 3 27 -4 50 -15 28 -14
40 -17 40 -8 0 14 -20 48 -20 35 0 -4 -13 -1 -30 8 -39 20 -64 20 -56 -1z"/>
<path d="M4471 4893 c3 -21 -2 -33 -16 -33 -18 0 -19 -9 -5 -44 13 -34 32 -34
24 0 -5 18 -1 29 11 38 11 8 16 20 12 30 -6 16 -28 23 -26 9z"/>
<path d="M577 4838 c18 -49 30 -65 39 -55 11 11 -26 97 -42 97 -12 0 -11 -7 3
-42z"/>
<path d="M4520 4823 c-16 -36 -18 -48 -8 -54 9 -6 18 4 28 32 9 22 22 44 29
48 10 6 9 10 -4 15 -9 3 -18 6 -20 6 -2 0 -13 -21 -25 -47z"/>
<path d="M4345 4840 c4 -6 11 -8 16 -5 14 9 11 15 -7 15 -8 0 -12 -5 -9 -10z"/>
<path d="M4590 4840 c0 -5 5 -10 10 -10 6 0 10 5 10 10 0 6 -4 10 -10 10 -5 0
-10 -4 -10 -10z"/>
<path d="M650 4810 c0 -5 5 -10 11 -10 5 0 7 5 4 10 -3 6 -8 10 -11 10 -2 0
-4 -4 -4 -10z"/>
<path d="M4555 4811 c-3 -5 -1 -12 5 -16 5 -3 10 1 10 9 0 18 -6 21 -15 7z"/>
<path d="M4540 4756 c0 -9 30 -14 35 -6 4 6 -3 10 -14 10 -12 0 -21 -2 -21 -4z"/>
<path d="M4713 4505 c0 -22 2 -30 4 -17 2 12 2 30 0 40 -3 9 -5 -1 -4 -23z"/>
<path d="M592 4374 c-16 -11 -22 -24 -21 -47 1 -25 3 -27 6 -9 9 46 95 53 113
9 7 -18 9 -19 9 -4 1 23 -43 67 -66 67 -10 0 -29 -7 -41 -16z"/>
<path d="M442 4360 c0 -14 2 -19 5 -12 2 6 2 18 0 25 -3 6 -5 1 -5 -13z"/>
<path d="M452 4270 c0 -19 3 -57 8 -85 6 -40 7 -43 8 -15 0 19 -3 58 -8 85 -6
40 -7 43 -8 15z"/>
<path d="M675 4290 c-3 -5 1 -10 10 -10 9 0 13 5 10 10 -3 6 -8 10 -10 10 -2
0 -7 -4 -10 -10z"/>
<path d="M612 4234 c-12 -8 -22 -21 -22 -29 0 -11 6 -11 32 2 24 13 38 14 60
5 15 -5 28 -6 28 -2 0 13 -42 40 -60 40 -9 0 -26 -7 -38 -16z"/>
<path d="M4678 4170 c-13 -70 -39 -322 -34 -327 7 -7 14 28 20 97 2 30 10 88
16 128 6 40 10 87 8 105 l-4 32 -6 -35z"/>
<path d="M590 4164 c0 -19 36 -44 62 -44 14 0 32 8 41 18 23 25 21 35 -2 22
-26 -14 -74 -13 -89 2 -7 7 -12 8 -12 2z"/>
<path d="M4511 4151 c-44 -13 -51 -18 -39 -28 11 -9 24 -8 61 5 26 9 47 23 47
29 0 16 -1 15 -69 -6z"/>
<path d="M471 4084 c0 -27 4 -67 9 -89 6 -29 7 -16 3 45 -6 95 -13 120 -12 44z"/>
<path d="M633 4093 c-28 -4 -33 -8 -33 -31 0 -19 3 -23 9 -13 5 7 32 16 60 19
34 3 51 9 51 18 0 14 -18 15 -87 7z"/>
<path d="M4555 4070 c3 -5 8 -10 11 -10 2 0 4 5 4 10 0 6 -5 10 -11 10 -5 0
-7 -4 -4 -10z"/>
<path d="M4546 4026 c3 -9 11 -16 16 -16 13 0 5 23 -10 28 -7 2 -10 -2 -6 -12z"/>
<path d="M610 4010 c0 -5 5 -10 11 -10 5 0 7 5 4 10 -3 6 -8 10 -11 10 -2 0
-4 -4 -4 -10z"/>
<path d="M4440 3969 c0 -15 8 -19 38 -19 20 0 47 -3 60 -6 18 -5 22 -2 22 15
0 12 -4 20 -8 17 -5 -3 -32 -2 -60 3 -47 7 -52 6 -52 -10z"/>
<path d="M642 3963 c-58 -7 -31 -28 33 -25 57 2 57 2 53 -23 -3 -14 -1 -25 3
-25 5 0 9 18 9 40 0 39 -1 40 -32 38 -18 0 -48 -3 -66 -5z"/>
<path d="M492 3925 c0 -16 2 -22 5 -12 2 9 2 23 0 30 -3 6 -5 -1 -5 -18z"/>
<path d="M678 3913 c7 -3 16 -2 19 1 4 3 -2 6 -13 5 -11 0 -14 -3 -6 -6z"/>
<path d="M4537 3885 l6 -36 -39 6 c-21 3 -49 8 -61 11 -17 3 -23 0 -23 -14 0
-15 9 -19 47 -21 26 -1 51 -5 56 -8 5 -3 13 1 18 8 12 19 11 76 0 84 -6 3 -7
-9 -4 -30z"/>
<path d="M620 3887 c0 -10 8 -17 18 -17 9 0 13 4 7 8 -5 4 -13 11 -17 16 -5 5
-8 2 -8 -7z"/>
<path d="M502 3835 c0 -16 2 -22 5 -12 2 9 2 23 0 30 -3 6 -5 -1 -5 -18z"/>
<path d="M652 3840 c-13 -12 -22 -32 -21 -48 1 -27 1 -27 8 -3 8 28 50 46 86
37 19 -5 25 -13 25 -34 0 -15 -6 -34 -12 -41 -11 -11 -10 -13 2 -9 9 3 16 19
18 41 6 66 -59 101 -106 57z"/>
<path d="M4627 3766 c-10 -85 -60 -379 -85 -503 -11 -51 -15 -90 -11 -87 5 3
9 15 9 28 0 12 4 26 8 32 5 5 14 36 21 69 7 33 16 80 21 105 5 25 14 83 20
130 6 47 15 108 21 135 6 28 9 75 7 105 l-3 55 -8 -69z"/>
<path d="M511 3766 c-1 -42 29 -219 36 -212 4 4 -25 221 -32 241 -2 6 -4 -7
-4 -29z"/>
<path d="M4410 3786 c0 -15 25 -22 94 -28 51 -5 41 20 -11 27 -26 4 -56 9 -65
12 -12 3 -18 -1 -18 -11z"/>
<path d="M657 3763 c-17 -4 -21 -25 -4 -24 4 1 14 1 22 1 8 0 15 7 15 15 0 15
-2 16 -33 8z"/>
<path d="M4400 3719 c0 -5 9 -9 20 -9 11 0 20 2 20 4 0 2 -9 6 -20 9 -11 3
-20 1 -20 -4z"/>
<path d="M708 3696 c-39 -5 -58 -13 -58 -22 0 -11 12 -13 58 -8 65 8 65 8 60
26 -2 10 -15 11 -60 4z"/>
<path d="M4481 3707 c2 -1 13 -9 24 -17 19 -14 19 -14 6 3 -7 9 -18 17 -24 17
-6 0 -8 -1 -6 -3z"/>
<path d="M4390 3646 c0 -10 15 -17 44 -21 57 -9 80 -4 84 18 3 16 1 17 -16 8
-11 -6 -21 -9 -23 -7 -2 2 -23 6 -46 10 -34 5 -43 3 -43 -8z"/>
<path d="M681 3619 c-27 -25 -22 -35 9 -19 12 7 38 10 56 8 38 -4 44 6 15 22
-30 15 -55 12 -80 -11z"/>
<path d="M4402 3584 c-12 -8 -22 -20 -22 -26 0 -7 5 -6 15 2 18 15 78 6 95
-15 33 -40 -62 -63 -100 -25 -24 24 -25 19 -5 -20 23 -44 68 -41 118 6 20 19
37 43 37 52 0 13 -2 13 -16 -4 -12 -15 -16 -16 -21 -5 -10 24 -42 51 -61 51
-10 0 -28 -7 -40 -16z"/>
<path d="M774 3563 c-8 -13 -24 -18 -57 -18 -43 0 -45 -1 -30 -17 9 -10 27
-18 40 -18 26 0 63 32 63 55 0 19 -3 19 -16 -2z"/>
<path d="M551 3525 c-1 -27 31 -203 35 -190 2 6 -5 55 -15 110 -11 55 -20 91
-20 80z"/>
<path d="M4393 3413 c-42 -24 -57 -53 -28 -53 8 0 15 4 15 8 0 5 22 19 50 32
27 13 47 27 44 32 -9 14 -37 7 -81 -19z"/>
<path d="M788 3303 c-9 -10 -19 -28 -22 -40 -4 -13 -15 -23 -24 -23 -12 0 -13
-3 -5 -11 18 -18 42 -3 59 36 8 19 21 35 30 35 8 0 12 5 9 10 -9 15 -30 12
-47 -7z"/>
<path d="M720 3285 c0 -8 2 -15 4 -15 2 0 6 7 10 15 3 8 1 15 -4 15 -6 0 -10
-7 -10 -15z"/>
<path d="M4390 3288 c-55 -12 -56 -13 -40 -33 7 -9 16 -12 19 -8 3 5 24 13 45
18 22 6 41 16 44 23 4 14 -5 14 -68 0z"/>
<path d="M4380 3235 c0 -2 7 -8 15 -15 12 -10 15 -10 15 2 0 8 -7 15 -15 15
-8 0 -15 -1 -15 -2z"/>
<path d="M611 3204 c0 -11 3 -14 6 -6 3 7 2 16 -1 19 -3 4 -6 -2 -5 -13z"/>
<path d="M4425 3200 c3 -5 8 -10 11 -10 2 0 4 5 4 10 0 6 -5 10 -11 10 -5 0
-7 -4 -4 -10z"/>
<path d="M740 3189 c0 -5 5 -7 10 -4 6 3 10 8 10 11 0 2 -4 4 -10 4 -5 0 -10
-5 -10 -11z"/>
<path d="M778 3183 c7 -3 16 -2 19 1 4 3 -2 6 -13 5 -11 0 -14 -3 -6 -6z"/>
<path d="M4315 3174 c-20 -21 -20 -40 1 -23 14 11 19 10 33 -8 16 -19 20 -20
49 -7 18 7 32 20 32 29 0 14 -3 14 -30 0 -26 -14 -31 -14 -36 -1 -8 22 -32 27
-49 10z"/>
<path d="M621 3164 c0 -11 3 -14 6 -6 3 7 2 16 -1 19 -3 4 -6 -2 -5 -13z"/>
<path d="M816 3165 c-3 -8 -12 -15 -21 -15 -8 0 -15 -4 -15 -10 0 -5 -7 -10
-15 -10 -16 0 -19 -9 -7 -27 5 -8 22 -1 55 24 44 33 53 53 22 53 -7 0 -15 -7
-19 -15z"/>
<path d="M636 3100 c4 -25 10 -52 15 -60 10 -17 1 39 -12 80 -6 16 -7 10 -3
-20z"/>
<path d="M4507 3106 c-5 -21 -6 -40 -3 -43 9 -10 18 24 14 54 -3 26 -4 25 -11
-11z"/>
<path d="M4292 3108 c6 -17 118 -39 118 -24 0 7 -15 17 -33 24 -44 16 -90 16
-85 0z"/>
<path d="M838 3038 c-26 -38 -42 -68 -35 -67 16 1 55 17 43 18 -4 1 4 17 18
36 16 20 26 45 24 58 -2 18 -11 11 -50 -45z"/>
<path d="M4282 3048 c-18 -18 -15 -25 10 -24 14 1 24 -6 26 -18 3 -16 0 -18
-27 -13 -22 5 -31 3 -31 -6 0 -14 98 -50 112 -41 15 10 8 22 -17 28 -34 9 -31
21 7 32 46 13 50 37 5 29 -26 -5 -36 -3 -40 9 -8 19 -28 21 -45 4z"/>
<path d="M4491 3038 c0 -9 -4 -25 -7 -35 -5 -17 -5 -17 6 0 6 10 9 25 7 35 -4
15 -5 15 -6 0z"/>
<path d="M890 3000 c-13 -8 -12 -10 3 -10 9 0 17 5 17 10 0 12 -1 12 -20 0z"/>
<path d="M4468 2955 c-3 -14 -1 -25 3 -25 5 0 9 11 9 25 0 14 -2 25 -4 25 -2
0 -6 -11 -8 -25z"/>
<path d="M4288 2903 c-47 -4 -63 -18 -33 -29 27 -11 105 6 105 22 0 8 -6 13
-12 12 -7 -1 -34 -3 -60 -5z"/>
<path d="M4451 2884 c0 -11 3 -14 6 -6 3 7 2 16 -1 19 -3 4 -6 -2 -5 -13z"/>
<path d="M4298 2844 c-4 -6 1 -19 12 -29 12 -10 20 -13 20 -7 0 7 -4 12 -9 12
-5 0 -11 8 -13 18 -2 11 -6 13 -10 6z"/>
<path d="M4423 2799 c-23 -69 -26 -82 -14 -75 6 4 11 18 11 31 0 13 5 25 11
27 6 2 9 14 7 28 -3 21 -4 20 -15 -11z"/>
<path d="M4213 2802 c-13 -8 -36 -62 -29 -69 2 -2 27 -13 55 -23 50 -20 50
-20 61 1 6 11 10 32 8 47 -2 21 -8 27 -28 27 -14 0 -29 6 -33 13 -9 14 -17 15
-34 4z m24 -37 c3 -9 3 -18 1 -21 -9 -9 -38 8 -38 22 0 19 29 18 37 -1z m63
-26 c0 -15 -4 -19 -16 -15 -9 3 -20 6 -25 6 -5 0 -9 7 -9 15 0 9 9 15 25 15
19 0 25 -5 25 -21z"/>
<path d="M855 2760 c4 -6 11 -8 16 -5 14 9 11 15 -7 15 -8 0 -12 -5 -9 -10z"/>
<path d="M913 2726 c-30 -29 -45 -62 -24 -54 17 6 91 71 91 79 0 19 -37 5 -67
-25z"/>
<path d="M4392 2690 c0 -14 2 -19 5 -12 2 6 2 18 0 25 -3 6 -5 1 -5 -13z"/>
<path d="M960 2652 c-25 -10 -47 -20 -48 -24 -4 -15 0 -43 4 -31 3 6 27 19 55
28 28 10 49 23 49 31 0 17 -3 17 -60 -4z"/>
<path d="M771 2644 c0 -11 3 -14 6 -6 3 7 2 16 -1 19 -3 4 -6 -2 -5 -13z"/>
<path d="M4371 2634 c0 -11 3 -14 6 -6 3 7 2 16 -1 19 -3 4 -6 -2 -5 -13z"/>
<path d="M790 2592 c0 -22 15 -61 71 -180 16 -34 29 -69 29 -77 0 -8 5 -15 10
-15 6 0 10 -9 10 -20 0 -11 5 -20 10 -20 6 0 10 -7 10 -16 0 -8 7 -22 15 -30
20 -21 19 -16 -12 47 -14 30 -52 117 -84 194 -32 77 -59 130 -59 117z"/>
<path d="M4350 2584 c0 -11 -4 -24 -8 -29 -5 -6 -17 -30 -27 -55 -9 -25 -26
-66 -36 -92 -10 -27 -14 -48 -9 -48 6 0 10 6 10 13 0 7 9 32 20 55 11 22 20
48 20 57 0 8 4 15 8 15 10 0 36 89 28 97 -3 4 -6 -3 -6 -13z"/>
<path d="M926 2566 c3 -9 13 -16 22 -16 8 0 13 1 11 3 -2 1 -12 9 -22 16 -15
12 -17 12 -11 -3z"/>
<path d="M4120 2570 c0 -5 5 -10 11 -10 5 0 7 5 4 10 -3 6 -8 10 -11 10 -2 0
-4 -4 -4 -10z"/>
<path d="M1040 2549 c-8 -5 -32 -16 -52 -24 -21 -9 -38 -19 -38 -23 0 -4 9
-22 20 -39 22 -36 47 -43 58 -15 4 9 16 17 27 17 15 0 20 7 22 30 1 17 -1 22
-4 12 -3 -14 -12 -18 -28 -15 -17 4 -25 0 -29 -14 -3 -12 -11 -18 -22 -16 -24
4 -29 27 -7 34 42 14 83 36 83 44 0 14 -14 18 -30 9z"/>
<path d="M4150 2536 c-7 -9 -22 -16 -33 -16 -20 0 -20 -1 -5 -16 15 -15 19
-15 52 5 20 12 41 19 47 15 7 -4 10 -1 7 7 -6 20 -52 23 -68 5z"/>
<path d="M4170 2476 c0 -2 7 -6 15 -10 8 -3 15 -1 15 4 0 6 -7 10 -15 10 -8 0
-15 -2 -15 -4z"/>
<path d="M4083 2463 c-20 -8 -15 -23 8 -23 25 0 60 -18 76 -39 11 -14 12 -14
13 2 0 39 -59 76 -97 60z"/>
<path d="M1055 2427 c-62 -25 -58 -22 -50 -46 6 -20 6 -20 28 2 20 20 22 20
25 4 2 -9 8 -17 13 -17 6 0 8 8 4 19 -4 14 1 20 20 25 24 6 33 20 18 29 -5 2
-30 -5 -58 -16z"/>
<path d="M4050 2398 c0 -50 69 -77 104 -42 20 19 21 31 2 15 -20 -17 -63 -3
-86 26 l-20 26 0 -25z"/>
<path d="M1123 2392 c0 -12 5 -22 9 -22 11 0 10 12 -2 30 -7 12 -9 10 -7 -8z"/>
<path d="M1020 2342 c0 -12 19 -26 26 -19 2 2 -2 10 -11 17 -9 8 -15 8 -15 2z"/>
<path d="M4020 2339 c0 -5 5 -7 10 -4 6 3 10 8 10 11 0 2 -4 4 -10 4 -5 0 -10
-5 -10 -11z"/>
<path d="M4246 2335 c-3 -8 -1 -15 4 -15 6 0 10 7 10 15 0 8 -2 15 -4 15 -2 0
-6 -7 -10 -15z"/>
<path d="M1105 2310 c-27 -14 -51 -25 -53 -26 -1 -1 0 -8 4 -17 5 -15 8 -15
30 0 20 12 24 13 24 1 0 -7 -6 -23 -14 -34 -9 -12 -11 -26 -6 -34 7 -11 11 -8
21 13 9 20 17 25 34 21 13 -3 27 1 35 11 11 14 10 22 -6 53 l-19 38 -50 -26z
m65 -30 c0 -13 -7 -20 -19 -20 -25 0 -38 20 -20 31 23 15 39 10 39 -11z"/>
<path d="M3996 2308 c-9 -37 -7 -46 16 -68 29 -27 73 -26 92 2 22 31 20 42 -4
18 -16 -16 -24 -18 -47 -9 -36 13 -52 35 -46 59 3 11 3 20 0 20 -2 0 -7 -10
-11 -22z"/>
<path d="M4231 2294 c0 -11 3 -14 6 -6 3 7 2 16 -1 19 -3 4 -6 -2 -5 -13z"/>
<path d="M4181 2199 c-19 -38 -32 -71 -29 -74 7 -7 71 121 67 133 -2 5 -19
-21 -38 -59z"/>
<path d="M1200 2230 c0 -5 5 -10 11 -10 5 0 7 5 4 10 -3 6 -8 10 -11 10 -2 0
-4 -4 -4 -10z"/>
<path d="M3952 2224 c-8 -15 -3 -21 39 -40 58 -27 63 -28 66 -17 2 5 -16 20
-39 33 -24 13 -46 28 -49 33 -4 5 -11 1 -17 -9z"/>
<path d="M1173 2178 c-36 -20 -50 -33 -46 -43 4 -12 14 -10 57 13 28 15 53 28
54 29 2 1 0 8 -5 15 -6 11 -18 8 -60 -14z"/>
<path d="M970 2181 c0 -7 7 -19 15 -27 19 -20 19 -5 0 20 -9 11 -15 14 -15 7z"/>
<path d="M3920 2166 c0 -2 7 -7 16 -10 8 -3 12 -2 9 4 -6 10 -25 14 -25 6z"/>
<path d="M1240 2150 c0 -5 5 -10 11 -10 5 0 7 5 4 10 -3 6 -8 10 -11 10 -2 0
-4 -4 -4 -10z"/>
<path d="M3935 2119 c-41 -10 -63 -24 -53 -34 5 -6 127 14 138 22 6 5 -22 23
-35 22 -5 -1 -28 -5 -50 -10z"/>
<path d="M1011 2110 c0 -8 8 -26 19 -40 11 -14 20 -31 20 -37 0 -7 5 -13 10
-13 10 0 -16 60 -30 70 -4 3 -10 12 -13 20 -5 13 -5 13 -6 0z"/>
<path d="M1197 2092 c-10 -10 -17 -28 -17 -40 0 -19 2 -18 29 9 18 17 40 29
56 29 15 0 24 4 20 10 -10 17 -71 11 -88 -8z"/>
<path d="M4131 2094 c0 -11 3 -14 6 -6 3 7 2 16 -1 19 -3 4 -6 -2 -5 -13z"/>
<path d="M1296 2067 c8 -22 -45 -59 -77 -55 -19 3 -25 0 -22 -9 9 -23 68 -21
95 4 19 17 24 58 8 68 -5 3 -7 0 -4 -8z"/>
<path d="M4073 1999 c-60 -109 -247 -384 -319 -469 -182 -215 -222 -269 -131
-177 41 41 184 223 220 280 10 16 27 37 37 47 23 23 120 166 120 178 0 4 8 17
18 28 22 25 52 74 59 97 3 9 9 17 14 17 5 0 9 9 9 19 0 11 5 21 12 23 6 2 9
10 6 18 -2 7 -22 -20 -45 -61z"/>
<path d="M3851 2047 c-7 -7 5 -20 42 -43 36 -23 55 -30 62 -22 7 7 4 14 -9 22
-10 6 -33 21 -51 33 -23 15 -36 18 -44 10z"/>
<path d="M3967 2039 c7 -7 15 -10 18 -7 3 3 -2 9 -12 12 -14 6 -15 5 -6 -5z"/>
<path d="M1070 1997 c0 -9 3 -17 8 -17 4 0 13 -13 20 -30 14 -30 37 -44 26
-15 -4 8 -10 15 -15 15 -5 0 -9 6 -9 13 0 6 -7 21 -15 31 -13 17 -15 18 -15 3z"/>
<path d="M3816 1993 c-11 -11 -6 -33 7 -33 7 0 29 -14 49 -30 36 -30 37 -30
48 -10 8 14 8 20 0 20 -6 0 -31 13 -54 30 -24 16 -46 26 -50 23z"/>
<path d="M1130 1897 c0 -9 5 -17 10 -17 6 0 10 -6 10 -12 0 -7 14 -29 30 -48
16 -19 30 -41 30 -47 0 -7 4 -13 8 -13 5 0 15 -11 22 -25 7 -14 15 -23 17 -21
3 2 -25 48 -61 103 -36 54 -66 90 -66 80z"/>
<path d="M3755 1900 c-10 -16 -8 -17 58 -24 36 -5 57 -4 57 3 0 14 -9 18 -61
26 -32 5 -49 3 -54 -5z"/>
<path d="M1434 1834 c-4 -10 -18 -36 -31 -56 -21 -34 -22 -38 -5 -38 25 0 71
85 55 101 -10 10 -14 8 -19 -7z"/>
<path d="M3715 1830 c-3 -5 2 -10 12 -10 21 0 56 -27 71 -55 10 -18 11 -17 12
11 0 18 -8 38 -18 47 -20 19 -67 23 -77 7z"/>
<path d="M3684 1787 c-8 -23 20 -65 51 -73 40 -10 49 6 13 24 -18 10 -38 28
-45 42 -10 21 -13 22 -19 7z"/>
<path d="M1490 1762 c0 -5 -18 -22 -40 -37 -39 -27 -51 -45 -29 -45 19 0 100
61 96 73 -4 14 -27 22 -27 9z"/>
<path d="M3625 1710 c-3 -5 2 -10 12 -10 25 0 63 -27 73 -54 8 -19 9 -18 9 10
1 18 -7 38 -17 47 -20 19 -67 23 -77 7z"/>
<path d="M1291 1661 c13 -24 51 -76 84 -117 33 -40 71 -87 85 -106 79 -104
252 -288 270 -288 7 0 -15 28 -48 63 -97 101 -228 254 -315 367 -97 127 -107
138 -76 81z"/>
<path d="M3596 1673 c-4 -9 -5 -16 -4 -17 2 -1 23 -16 46 -35 40 -31 45 -32
60 -17 14 14 14 16 1 16 -8 0 -34 16 -56 35 -34 29 -42 32 -47 18z"/>
<path d="M1531 1673 c-15 -3 -20 -8 -12 -12 8 -6 7 -15 -4 -39 -10 -19 -13
-37 -8 -46 6 -11 17 1 40 45 19 34 27 58 20 58 -6 -1 -23 -4 -36 -6z"/>
<path d="M1446 1650 c7 -7 19 -7 35 -1 23 9 22 10 -10 10 -24 1 -32 -2 -25 -9z"/>
<path d="M1564 1565 c-10 -15 -13 -32 -9 -46 7 -22 8 -21 20 7 13 31 59 59 77
48 7 -4 8 -2 4 4 -4 7 -23 12 -41 12 -26 0 -39 -6 -51 -25z"/>
<path d="M1676 1523 c-6 -14 -5 -15 5 -6 7 7 10 15 7 18 -3 3 -9 -2 -12 -12z"/>
<path d="M1705 1452 c-3 -31 -8 -65 -11 -74 -4 -13 -1 -16 10 -12 17 7 22 19
31 85 4 36 2 48 -9 52 -11 4 -15 -8 -21 -51z"/>
<path d="M1597 1486 c-15 -12 -16 -14 -2 -20 20 -7 47 3 42 17 -5 17 -20 18
-40 3z"/>
<path d="M3440 1489 c0 -30 26 -42 62 -30 28 10 35 9 46 -6 12 -17 13 -16 10
7 -3 23 -7 25 -53 23 -29 -1 -53 3 -57 10 -5 8 -8 7 -8 -4z"/>
<path d="M3395 1450 c-3 -5 3 -10 15 -10 12 0 18 5 15 10 -3 6 -10 10 -15 10
-5 0 -12 -4 -15 -10z"/>
<path d="M1760 1427 c-12 -21 -12 -21 6 -7 10 8 20 15 22 16 2 1 -1 4 -5 7 -5
3 -15 -4 -23 -16z"/>
<path d="M3356 1412 c-2 -4 15 -28 39 -54 44 -46 44 -46 62 -25 10 11 13 18 7
14 -6 -3 -28 12 -49 33 -40 40 -50 46 -59 32z"/>
<path d="M3505 1410 c4 -6 11 -8 16 -5 14 9 11 15 -7 15 -8 0 -12 -5 -9 -10z"/>
<path d="M3420 1394 c0 -8 5 -12 10 -9 6 4 8 11 5 16 -9 14 -15 11 -15 -7z"/>
<path d="M1790 1392 c-30 -9 -50 -36 -50 -66 l0 -31 20 33 c11 18 34 39 51 46
26 11 28 14 13 18 -11 3 -26 3 -34 0z"/>
<path d="M3480 1380 c0 -19 3 -21 12 -12 9 9 9 15 0 24 -9 9 -12 7 -12 -12z"/>
<path d="M1850 1346 c0 -18 -36 -54 -65 -66 -16 -7 -12 -9 17 -9 27 -1 41 5
52 21 18 26 21 54 6 63 -5 3 -10 -1 -10 -9z"/>
<path d="M3275 1320 c-5 -7 9 -28 34 -53 l41 -42 32 33 c27 26 30 34 19 44
-11 11 -13 10 -6 0 4 -8 -1 -22 -11 -33 -17 -19 -18 -19 -60 22 -29 28 -44 37
-49 29z"/>
<path d="M3220 1269 c0 -7 18 -31 39 -55 29 -31 43 -39 50 -31 6 9 -3 25 -30
55 -40 42 -59 52 -59 31z"/>
<path d="M3160 1187 c0 -18 92 -59 104 -47 12 12 12 11 -46 38 -56 26 -58 26
-58 9z"/>
<path d="M3078 1112 c15 -12 21 -24 16 -35 -8 -23 -20 -21 -38 5 -11 15 -19
19 -26 12 -7 -7 3 -25 29 -54 29 -33 43 -42 51 -34 8 8 7 14 -5 24 -26 21 -17
31 24 24 47 -8 64 11 18 20 -27 5 -33 11 -33 29 1 17 -5 23 -29 25 l-30 3 23
-19z"/>
<path d="M3180 1115 c0 -5 5 -17 10 -25 5 -8 10 -10 10 -5 0 6 -5 17 -10 25
-5 8 -10 11 -10 5z"/>
<path d="M1844 1035 c14 -14 28 -25 32 -25 4 0 -3 11 -16 25 -13 14 -27 25
-32 25 -5 0 2 -11 16 -25z"/>
<path d="M2961 1033 l-30 -28 39 -45 c28 -32 43 -41 50 -34 8 8 6 15 -5 24
-18 15 -20 37 -2 43 6 2 8 8 4 13 -4 5 -12 2 -17 -6 -8 -13 -12 -12 -27 3 -17
18 -17 19 1 32 10 8 23 12 27 9 5 -3 9 0 9 5 0 18 -18 12 -49 -16z"/>
<path d="M1900 981 c14 -13 44 -40 68 -62 23 -22 42 -36 42 -32 0 10 -107 106
-124 112 -6 2 0 -6 14 -18z"/>
<path d="M2090 810 c18 -17 35 -28 38 -26 5 6 -49 55 -62 56 -4 0 6 -14 24
-30z"/>
<path d="M2206 715 c16 -14 33 -25 37 -25 5 0 -5 11 -21 25 -17 14 -33 25 -37
25 -5 0 5 -11 21 -25z"/>
<path d="M2260 674 c0 -8 25 -28 54 -45 28 -17 11 6 -24 31 -17 12 -30 18 -30
14z"/>
<path d="M2340 611 c0 -5 7 -12 16 -15 14 -5 15 -4 4 9 -14 17 -20 19 -20 6z"/>
<path d="M2380 581 c0 -5 7 -12 16 -15 14 -5 15 -4 4 9 -14 17 -20 19 -20 6z"/>
<path d="M2420 551 c0 -6 17 -21 38 -35 20 -13 43 -30 50 -39 7 -8 26 -20 43
-27 24 -10 32 -10 42 0 9 10 9 11 -1 5 -12 -6 -68 27 -144 85 -16 12 -28 17
-28 11z"/>
</g>
</svg>
