<svg xmlns="http://www.w3.org/2000/svg" viewBox="0 0 863.75 939.1"><defs><style>.cls-1{isolation:isolate;}.cls-2,.cls-9{fill:#fe7f03;}.cls-2,.cls-3,.cls-5{stroke:#761e00;stroke-width:2px;}.cls-2{stroke-linecap:round;stroke-linejoin:round;}.cls-10,.cls-3{fill:#fff8ee;}.cls-3,.cls-5{stroke-miterlimit:10;}.cls-4,.cls-5,.cls-7{fill:#761e00;}.cls-11,.cls-4{mix-blend-mode:multiply;opacity:0.2;}.cls-6{fill:#e55106;}.cls-8{fill:#feb5c6;}.cls-12{fill:#440203;}</style></defs><g class="cls-1"><g id="Capa_2" data-name="Capa 2"><g id="Capa_1-2" data-name="Capa 1"><path class="cls-2" d="M787.19,394.46c1.12-25.13-33.11-50.06-33.11-50.06A20.5,20.5,0,0,1,767.63,342c-36.67-17-79-22.85-120.77-21.52,3.86-7,21.86-10.64,21.86-10.64-23.62-3.58-40.39,3.25-49.24,8.47a45.81,45.81,0,0,1-18.85,6.24h0C522.3,332.9,468.33,361.45,445,386.37c-46,49-94.63,266-74,328.61s74,154.33,74,154.33c65.66,8,182.21-14.12,191.1-132.79,8.15-108.81-9.23-218.69,84.64-231.67-22.61-13.18-30.7-25.66-30.7-25.66,12.91,18.51,54,4.63,54,4.63-35.91-1.4-43.21-55.77-43.21-55.77,34.79,12.4,67.33-1.35,67.33-1.35.56-15.88-24.12-35.83-24.12-35.83C774.84,381.79,787.19,394.46,787.19,394.46Z"/><path class="cls-3" d="M826.83,386.37A173.38,173.38,0,0,0,767.63,342a20.5,20.5,0,0,0-13.55,2.38s34.23,24.93,33.11,50.06c0,0-12.35-12.67-43.2-3.59,0,0,24.68,19.95,24.12,35.83,0,0-32.54,13.75-67.33,1.35,0,0,7.3,54.37,43.21,55.77,0,0-41.09,13.88-54-4.63,0,0,8.84,25.5,30.7,25.66A143.08,143.08,0,0,1,740,503.57c24.6-.06,39.53,9.63,48.35,22.43a.8.8,0,0,0,0,.15s5.19,12.74-.21,22.47c0,0,4.45.93,8.47-4.86,5.91,20.06,2.7,40.62.22,43.1C796.83,586.86,922.49,497.86,826.83,386.37Z"/><path class="cls-4" d="M740,503.57c24.6-.06,39.53,9.63,48.35,22.43a.8.8,0,0,0,0,.15s5.19,12.74-.21,22.47c0,0,4.45.93,8.47-4.86,5.91,20.06,2.7,40.62.22,43.1,0,0,125.66-89,30-200.49A173.38,173.38,0,0,0,767.63,342c-36.67-17-79-22.85-120.77-21.52,3.86-7,21.86-10.64,21.86-10.64-23.62-3.58-40.39,3.25-49.24,8.47a45.81,45.81,0,0,1-18.85,6.24h0C522.3,332.9,468.33,361.45,445,386.37c0,0,69.14-34.82,100.21-35.27s70.45-23,86.45-24.36c0,0-12.5,8.55-9.68,10.81,0,0,106.5-.23,154.44,33.19,48.46,33.78,104.79,100.45,32.9,188.78,0,0-1.66-17-7.44-31.22,0,0-2,5.66-4.34,7.11,0,0-1.61-18.11-18.22-26.55S740,503.57,740,503.57Z"/><path class="cls-4" d="M347.21,441.66c-74.72,9.6-138,40.33-178.62,285.09C138,911.14,221.52,885.63,347.26,886.23c118.23.56,205.27,38.1,179.13-158.11C491.78,468.33,407.17,434,347.21,441.66Z"/><path class="cls-2" d="M327.29,461.83c-74.71,9.59-138,40.32-178.62,285.08C118.06,931.3,201.61,905.8,327.35,906.4c118.23.56,205.27,38.1,179.13-158.12C471.87,488.5,387.26,454.13,327.29,461.83Z"/><path class="cls-4" d="M510.88,821.68c-5.06,112.39-83,85.19-183.53,84.72-125.74-.6-209.29,24.9-178.68-159.49,40.65-244.76,103.91-275.49,178.62-285.08,0,0-95.68,61.68-130,189.49s-36.1,235.46,22.16,235.43c52.82,0,71.68-2.29,105.11-2.29,50.26,0,126.5,11.15,155.82-10.74C506.14,854.53,510.88,821.68,510.88,821.68Z"/><path class="cls-2" d="M259.52,800.52c-13.13-40.62-22-91.59-7.47-169.33,8-42.46,39-102.58,38.24-127.79-2.21-69.68-55.72-43.95-78.28-11.54C156.49,571.61,143.55,716.65,176.33,830,176.46,830,223.91,843.13,259.52,800.52Z"/><path class="cls-5" d="M290.29,892.08c-5.32-29.78-19.57-56.9-30.77-91.56C223.91,843.13,176.46,830,176.33,830c10,34.46,24.15,66,42.65,91.86C237.52,951.19,299,940.52,290.29,892.08Z"/><path class="cls-4" d="M277.08,848.06c-2.78-15.65,10.55,29.11,13.21,44,8.66,48.44-52.77,59.11-71.31,29.78C200.48,896,186.3,864.46,176.33,830,143.55,716.65,156.49,571.61,212,491.86c0,0-39.41,137.11-33,218,6.24,78.39,39.77,196.88,64.66,197.77C243.71,907.63,290.46,923.16,277.08,848.06Z"/><path class="cls-5" d="M354.21,892.08c5.32-29.78,19.57-56.9,30.77-91.56C420.59,843.13,468,830,468.17,830c-10,34.46-24.15,66-42.65,91.86C407,951.19,345.55,940.52,354.21,892.08Z"/><path class="cls-2" d="M479.3,617.47c-8.17-48.47-23.85-92.63-46.81-125.61-22.56-32.41-76.07-58.14-78.28,11.54-.8,25.21,30.28,85.33,38.24,127.79C407,708.93,398.11,759.9,385,800.52,420.59,843.13,468,830,468.17,830c17.11-59.18,21.76-127,14.39-189.65a67.24,67.24,0,0,1,9.3,12.32C494.08,635.51,489.78,625.44,479.3,617.47Z"/><path class="cls-4" d="M386.16,908.08c-16-10.52,11-43.68,30-143.11,19.55-102.23-16.45-180-28.89-206.67s-33.06-54.9-33.06-54.9c-.8,25.21,30.28,85.33,38.24,127.79C407,708.93,398.11,759.9,385,800.52c-11.2,34.66-25.45,61.78-30.77,91.56-8.66,48.44,52.77,59.11,71.31,29.78a242.26,242.26,0,0,0,14.3-22.61S409.27,923.3,386.16,908.08Z"/><path class="cls-3" d="M437.34,515.5c3.24-24.49.87-34.12-4.25-49.54-8.69-26.21-212.42-65.21-219.31,8.77-1.17,12.5.87,4.41,1.14,17.38-9.32,27.44-13.94,83.3-7.55,98.47,0,0,2.23-6.13,9.25-13q1.45-1.41,2.82-2.85c1,24.44.72,57.32,9.18,69.14,0,0,1.63-5.87,7.25-14.35a76.79,76.79,0,0,0,5.42-9.37c.49,26.91,6.71,67.78,24.63,77.93,0,0,8.13-28.53,17.28-32.54,19.12,40.71,57.71,59.49,57.71,59.49a45.17,45.17,0,0,1,17.6-27.53c13.42-10,17.24-17.63,21.79-23.56a19.1,19.1,0,0,1,5.78,6.31,37.71,37.71,0,0,1,4.76,11c14.82-14.21,28-48,23.35-78.74a61.31,61.31,0,0,0,6.16,7.93c6.28,7,5.83,13.06,5.83,13.06,7.36-13.78,6.83-46.88,5.74-71.32,1,.74,2.08,1.33,3,2.13,4.15,3.5,8.24,11,8.24,11C446.92,563,444.6,535.39,437.34,515.5Z"/><path class="cls-4" d="M437.34,515.5c7.26,19.89,9.58,47.5,5.85,59.81,0,0-4.09-7.49-8.24-11-.95-.8-2-1.39-3-2.13,1.09,24.44,1.62,57.54-5.74,71.32,0,0,.45-6-5.83-13.06a61.31,61.31,0,0,1-6.16-7.93c4.61,30.78-8.53,64.53-23.35,78.74a37.71,37.71,0,0,0-4.76-11A19.1,19.1,0,0,0,380.3,674c-4.55,5.93-8.37,13.55-21.79,23.56a45.17,45.17,0,0,0-17.6,27.53s-38.59-18.78-57.71-59.49c-9.15,4-17.28,32.54-17.28,32.54-17.92-10.15-24.14-51-24.63-77.93a76.79,76.79,0,0,1-5.42,9.37c-5.62,8.48-7.25,14.35-7.25,14.35-8.46-11.82-8.17-44.7-9.18-69.14q-1.37,1.44-2.82,2.85c-7,6.84-9.25,13-9.25,13-6.39-15.17-1.77-71,7.55-98.47,0,0-1,51.76.75,60.77,0,0,5.91-5.88,9.87-7.66,0,0,3.72,52.52,6.09,60.95,0,0,10.6-15.75,15.1-18.92,0,0,6.54,62.48,16,77.55,0,0,11.11-22,22-26.9,0,0,29.46,57,50.38,66.14,0,0,7.88-11.75,18.39-18.44,8.91-5.67,23.4-25.12,22.51-34.45,0,0,15.82,10.15,16.74,19.27,0,0,18.75-34.78,10.28-81.65,0,0,20,15.92,21.31,22.18,0,0,2-46.81,2.37-60.46,0,0,9.66,5.45,12.57,11.26C440.54,564.28,442.78,533,437.34,515.5Z"/><path class="cls-6" d="M86.62,99.81l11.27,15.91-20.15,4,5.54,17.88-25.18,5,4.91,18-27.14.2-.12,20.65L13,177.27,14,191.65C26.5,225,48.72,254.49,80.17,257.79c65.65,6.89,97.11-108.86,97.11-108.86S132.51,117.28,86.62,99.81Z"/><path class="cls-7" d="M95.9,257.78a52.27,52.27,0,0,1-15.8.73c-27.66-2.91-52-27.18-66.75-66.6l0-.1-1.14-15.42L35,180.67l.12-20.5L62.07,160,57.2,142.13l25.16-5-5.55-17.88,19.84-4-12-16.94,2.22.84c45.46,17.31,90.38,48.89,90.83,49.21l.41.29-.13.49c-.08.29-8.07,29.35-24,57.18C137,236,117.12,253.53,95.9,257.78ZM14.74,191.5c14.57,38.83,38.44,62.73,65.51,65.57,62.13,6.52,93.86-99.68,96.2-107.84-4.58-3.19-45.69-31.4-87.86-47.89l10.53,14.87-20.46,4.1,5.55,17.88L59,143.24l5,18.17-27.37.2-.12,20.8-22.72-4.26Z"/><path class="cls-7" d="M77.74,119.76l20.15-4L86.62,99.81h0C60.78,90,34.58,84.63,15.82,92,3,97-.71,124.36,4.4,155.5A194,194,0,0,0,14,191.65L13,177.27l22.79,4.27.12-20.65,27.14-.2-4.91-18,25.18-5Z"/><path class="cls-7" d="M15.12,196.63l-1.77-4.72a195.58,195.58,0,0,1-9.66-36.3C-1.82,122.05,3,96.19,15.55,91.28c16.61-6.49,40.61-3.84,71.32,7.85l.2.08.14.18,11.91,16.82-20.46,4.1,5.55,17.88L59,143.24l5,18.17-27.37.2-.12,20.8-22.72-4.26ZM23.76,90.4a45.1,45.1,0,0,0-7.68,2.22C4.31,97.21-.19,123,5.12,155.38a194,194,0,0,0,7.79,31l-.74-10L35,180.67l.12-20.5L62.07,160,57.2,142.13l25.16-5-5.55-17.88,19.84-4L86.15,100.4C60.36,90.61,39.43,87.26,23.76,90.4Z"/><path class="cls-8" d="M172.35,171.73S81.37,105.45,41.63,121c-24,9.36,1.58,128,56.67,133.79C148.36,260,172.35,171.73,172.35,171.73Z"/><path class="cls-7" d="M102.48,255.71a40.49,40.49,0,0,1-4.25-.23c-20.91-2.19-35.73-20-44.48-34.53-10.25-17-18-39.56-20.81-60.26-3-22.11.17-37.22,8.42-40.44,39.66-15.47,127.7,48.16,131.43,50.88l.42.3-.14.5a212.22,212.22,0,0,1-18.32,43.65C139.67,241.93,121.67,255.71,102.48,255.71ZM55.57,119.36a37.57,37.57,0,0,0-13.67,2.29c-7.44,2.9-10.31,17.79-7.47,38.84C37.18,181,44.89,203.32,55,220.18c8.57,14.25,23.05,31.68,43.34,33.81,46.9,4.92,71.05-74.84,73.1-82C165.43,167.7,96.93,119.36,55.57,119.36Z"/><path class="cls-6" d="M487.32,91.09l-8.06-19L454.14,82.34l-2.4-18.51-25.19,5-1.77-18.64-20.15,4,4.27-19c-35.62,33.8-64.75,80.25-64.75,80.25s73.62,94.7,131.55,63.06c27.75-15.16,36.89-51,35.57-86.51l-4.56-13.69Z"/><path class="cls-7" d="M461.19,184.61c-21.23,4.25-46.27-4.26-73.43-25.14-25.42-19.55-44-43.29-44.18-43.53l-.31-.4.27-.42c.3-.47,29.58-46.92,64.87-80.4l1.72-1.63-4.55,20.26,19.84-4L427.19,68l25.16-5,2.38,18.35,24.91-10.19,8,18.88L507.1,77.24,512,91.92V92c1.56,42.07-11.54,73.84-35.94,87.17A52.47,52.47,0,0,1,461.19,184.61ZM345,115.45c5.3,6.64,75.48,92.42,130.31,62.47,23.89-13,36.71-44.29,35.2-85.74l-4.22-12.7L487,92.17,478.87,73,453.54,83.37l-2.42-18.68-25.21,5L424.14,51.1l-20.46,4.1,4-17.78C375.11,68.89,348,110.76,345,115.45Z"/><polygon class="cls-9" points="408.9 35.25 408.9 35.25 408.9 35.25 408.9 35.25"/><circle class="cls-7" cx="408.9" cy="35.25" r="0.5"/><path class="cls-7" d="M471.21.73c-20.14.47-42.25,15.49-62.3,34.52h0l-4.27,19,20.15-4,1.77,18.64,25.19-5,2.4,18.51,25.12-10.27,8.06,19,19.39-12.73,4.56,13.69a192.58,192.58,0,0,0-2.66-25.38C502.39,30.55,486.73.36,471.21.73Z"/><path class="cls-7" d="M512.18,97.06l-5.85-17.58L487,92.17,478.87,73,453.54,83.37l-2.42-18.68-25.21,5L424.14,51.1l-20.46,4.1,4.57-20.33.16-.15C432.25,12.1,453.37.42,471.2,0h0c15.14-.35,31.53,28.25,38.12,66.54A194,194,0,0,1,512,92ZM507.1,77.24l3.18,9.53a193.54,193.54,0,0,0-2.39-20C501.43,29.2,485.67,1.11,471.23,1.45c-17.41.41-38.16,11.9-61.67,34.17l-4,17.73,19.84-4L427.19,68l25.16-5,2.38,18.35,24.91-10.19,8,18.88Z"/><path class="cls-8" d="M357.49,134.65s58.43-96.22,101.07-97.22c25.74-.6,47.85,118.74-.77,145.3C413.62,206.86,357.49,134.65,357.49,134.65Z"/><path class="cls-7" d="M438.38,188.35c-14.3,0-30.48-6.73-47.76-20a212.36,212.36,0,0,1-33.72-33.22l-.32-.41.27-.44c2.4-3.95,59.13-96.58,101.7-97.58h.21c8.77,0,17.4,12.7,23.13,34.07,5.4,20.19,6.9,44,4,63.64-2.48,16.79-9.3,38.92-27.75,49A40.61,40.61,0,0,1,438.38,188.35Zm-80-53.76c4.63,5.77,57.63,70.09,99,47.48,17.91-9.78,24.56-31.45,27-47.9,2.87-19.47,1.39-43-4-63-5.46-20.36-13.75-33-21.68-33h-.18C418.31,39.13,362.8,127.5,358.41,134.59Z"/><path class="cls-7" d="M446.74,187.52c-41.92,8.4-89.3-51.77-89.82-52.43l-.3-.39.25-.43c2.4-3.94,59.12-96.56,101.68-97.56,8.83-.21,17.55,12.52,23.31,34.05,5.41,20.18,6.91,44,4,63.62-2.47,16.79-9.29,38.91-27.73,49A39.88,39.88,0,0,1,446.74,187.52Zm-88.37-52.93c4.56,5.68,57.61,70.15,99.08,47.5,31.73-17.33,32.56-75.32,23-110.95-5.5-20.53-13.89-33.17-21.89-33C418.27,39.1,362.69,127.62,358.37,134.59Z"/><path class="cls-9" d="M612.35,282s-11.23,11.88-42.46-14.35c-32.71-27.47-72.1-154.85-220.06-165.2,6.27-26.5-18.36-49.64-18.36-49.64,4.08,32.46-26.39,44.9-26.39,44.9,9.68-58.93-51.61-84.4-51.61-84.4,23.44,52.4-25.5,93.19-25.5,93.19-19.45-12.83-2.1-43.38-2.1-43.38-40,13.83-48,59.21-49.55,74.25C47.61,203.38,54.29,337,34.71,374.87,16,411.11,1.06,404.47,1.06,404.47s12.66,50.86,66,20.91c0,0-22.48,37.1-14.94,74.74,0,0,19.14-10.46,69.55-18.15,83.18-12.69,74.63,45.21,216.16,16.86s114-76,194-102.05C564.46,386.18,602,390,602,390c-8.54-42.61-42.57-63.22-42.57-63.22C620.25,333.83,612.35,282,612.35,282Z"/><path class="cls-7" d="M338,499.54c-81.78,16.38-113.7,4-141.85-7-21.09-8.18-39.29-15.26-74.34-9.91-49.66,7.58-69.12,18-69.31,18.07l-.86.47-.2-1C45,468,60.62,435.8,65.24,427.22,48.79,436,34.58,437.83,23,432.82,5.69,425.35.41,404.86.36,404.65L0,403.21l1.35.6c.14.07,14.61,5.79,32.72-29.27,4.64-9,7.75-23.19,11.68-41.18,6.33-28.89,14.19-64.85,32.92-100.62,22.12-42.28,53.85-73.62,97-95.81,1.57-14.47,9.72-60.53,50-74.47l1.81-.63-.95,1.67c-.17.3-16.52,29.62,1.42,42.11,4.65-4.11,46.69-43.25,24.9-92L252.07,12l1.68.7c.61.25,60.77,26,52.26,83.84,5.54-2.74,28.25-15.74,24.74-43.59l-.25-2L332,52.3c.24.23,24.34,23.26,18.75,49.51,49.2,3.59,90.59,20.09,126.5,50.44,30.51,25.77,50.65,56.11,66.84,80.49,10.3,15.52,18.44,27.78,26.29,34.37,30.22,25.38,41.37,14.53,41.48,14.41l1-1,.22,1.44c0,.2,3.06,21.15-10,34.7-8.73,9-22.45,12.78-40.8,11.15,8,5.69,33.32,26.26,40.49,62.06l.19,1-1-.1c-.37,0-37.8-3.66-69.87,6.77C499.63,408,485,422.15,469.41,437.12,447.22,458.48,422.08,482.7,338,499.54Zm-237.3-14.62c6.28-1.26,13.23-2.5,20.9-3.67,35.42-5.4,54.68,2.08,75.07,10,28,10.86,59.68,23.17,141.05,6.87,83.65-16.75,107.55-39.78,130.68-62,15.66-15.09,30.46-29.34,63.22-40,29.46-9.58,63.36-7.42,69.5-6.92-8.69-41.19-41.71-61.59-42-61.8l-2.84-1.72,3.29.39c19.33,2.24,33.61-1.26,42.46-10.42,10.75-11.13,10.18-27.57,9.77-32.22-3.54,2.34-15.93,7-42.34-15.18-8-6.73-16.21-19.06-26.57-34.68C510.46,184.74,461.5,111,349.78,103.19l-.85-.06.2-.83c5.21-22-11.61-42-16.73-47.49,2.59,31.11-26.74,43.47-27,43.59l-1.2.49.21-1.28c8.56-52.17-39.73-78.16-49.48-82.84,21.56,51.47-26,91.9-26.45,92.31l-.41.34-.45-.3c-17.14-11.3-6.48-36-3.2-42.67-38.33,14.5-45.92,59.43-47.34,73l0,.39-.35.17C79,188.09,59.85,275.7,47.17,333.67c-4,18.1-7.09,32.39-11.82,41.53-15.82,30.65-29,31.11-33.23,30.32,1.41,4.46,7.22,19.84,21.43,26,11.69,5.05,26.23,2.78,43.19-6.74l2.39-1.34-1.42,2.35c-.22.36-21.86,36.68-15,73.29C56.24,497.34,70.84,490.9,100.71,484.92Z"/><path class="cls-10" d="M506.54,370c2.5-4.57,10.9-5.94,10.9-5.94-14.89-2-31.46,5.23-47.33,9.4-10.63,2.73-23.7,3.51-27.76,2.42-.07-4.91,16.92-9.09,16.92-9.09-5.27-.94-12,0-18.14,1.43a94.73,94.73,0,0,1-52.44-2.52c-29.86-10.26-45.5-23.28-80.73-16.22-31.28,6.27-43.68,18.21-60.77,34.44-17.26,16.38-38,29-60.85,35.49a35.07,35.07,0,0,0-9.26,3.9s14.79-2.29,18.46,1l-.21.13c-12.51,7.58-37.58,8.79-52.11,10.43-7.43.84-15.48,2-23.32,7,0,0,12.53-2.83,19.5,2.4-49.33,15-70.54,23.6-86.54,56.12,22.67-3,40-4.18,86.3,2.3,69.75,9.76,96.85,44.22,204.28,23.91,106.07-20,147.94-74.83,185.19-100.62,33.28-23,58.22-32.62,73.4-36C592.55,375,582.54,362.58,506.54,370Z"/><path class="cls-7" d="M347.56,526.56c-1.32.26-2.64.52-4,.77-72.94,13.79-108.57,2.5-146.3-9.44-17.58-5.57-35.76-11.33-58.21-14.47-47-6.58-63.91-5.26-86.1-2.29l-1.35.18.6-1.22c15.75-32,36.08-41,85.5-56-6.79-3.85-17.55-1.48-17.65-1.45l-4,.91,3.48-2.23c7.85-5,16-6.27,23.63-7.13,2.33-.26,4.93-.51,7.7-.78,13.89-1.35,32.78-3.17,43.32-9.09-3.75-1.75-13.29-.8-17-.23l-3.37.52,2.86-1.84a35.61,35.61,0,0,1,9.46-4c21.79-6.18,42.72-18.39,60.54-35.31l.37-.36c17.13-16.26,29.5-28,60.75-34.27,27.2-5.45,42.59.88,62.07,8.89,5.93,2.44,12.07,5,19,7.35a93.79,93.79,0,0,0,52.05,2.5c7.57-1.78,13.77-2.26,18.43-1.43l3.36.59-3.31.82c-6,1.47-15.28,4.81-16.29,7.83,4.6.84,16.95,0,26.77-2.56,3.89-1,7.91-2.25,11.79-3.44,12-3.69,24.44-7.5,35.81-6l4.81.64-4.78.78c-.08,0-6.51,1.11-9.5,4.36,77-7.35,85.56,6.15,94.58,20.44l.55.86-1,.23c-11.75,2.63-36.88,10.8-73.15,35.91-8.19,5.67-16.8,12.91-25.91,20.58C471.28,474,427.85,510.47,347.56,526.56Zm-293.45-27c21.66-2.85,38.88-4,85.15,2.47,22.57,3.16,40.81,8.94,58.45,14.52,37.55,11.89,73,23.12,145.59,9.4,82.48-15.53,126.65-52.73,158.9-79.84,9.14-7.69,17.77-15,26-20.67,35.48-24.56,60.41-33,72.65-35.9-8.66-13.67-18.23-26.2-94.26-18.76l-1.36.13.66-1.19c1.44-2.64,4.61-4.27,7.25-5.2-9.93-.24-20.63,3-31,6.24-3.89,1.19-7.92,2.43-11.85,3.46-10.67,2.75-23.89,3.55-28.13,2.42l-.52-.14v-.55c-.06-3.93,8.49-7.15,13.7-8.75a56.66,56.66,0,0,0-14,1.78,95.53,95.53,0,0,1-52.85-2.54c-7-2.41-13.16-4.94-19.12-7.38-19.26-7.92-34.47-14.17-61.23-8.81-30.85,6.18-43.09,17.8-60,33.9l-.38.35c-18,17.08-39.12,29.41-61.14,35.66a43.33,43.33,0,0,0-5.68,2c4.79-.47,12.46-.78,15.16,1.63l.73.65-1.05.63c-10.64,6.46-30.34,8.36-44.72,9.76-2.76.26-5.36.52-7.68.78-6.65.75-13.18,1.72-19.66,5,4.36-.44,11.44-.45,16.19,3.12l1.14.86-1.36.41C90.19,460,69.69,468.7,54.11,499.52Z"/><path class="cls-7" d="M353.5,340.82c-6.8-11.88-28.83-11.89-48.82-7.66C284.6,337,264.28,345.45,262.59,359s38.89,24.88,52.46,26.49l.24,0C327.18,378.76,360.26,352.65,353.5,340.82Z"/><path class="cls-7" d="M315.54,386.16l-.58.08c-10.56-1.26-42.19-9.48-50.87-20.57a9,9,0,0,1-2.22-6.73c1.47-11.81,17.43-21.72,42.68-26.49l1.53-.32c24.35-4.87,42.25-1.8,48,8.33a9,9,0,0,1,.54,7.07c-3.74,13.57-29.76,33.35-39,38.57Zm-.52-1.37h0c9.2-5.23,34.62-24.52,38.24-37.65a7.65,7.65,0,0,0-.4-6h0c-5.59-9.77-23.6-12.47-48-7.32-24.68,4.67-40.13,14.1-41.53,25.26a7.68,7.68,0,0,0,1.93,5.66C273.62,375.5,304.52,383.51,315,384.79Z"/><path class="cls-7" d="M254.82,450.24a.72.72,0,0,1-.49-1.34,36.21,36.21,0,0,0,12.15-13.11c3.1-5.48,5.2-14.59,4.5-19.51a.69.69,0,0,1,.61-.82.72.72,0,0,1,.82.61c.75,5.27-1.39,14.63-4.67,20.43C262.34,446,255.33,450,255,450.16A.9.9,0,0,1,254.82,450.24Z"/><path class="cls-7" d="M401.58,426.19h-.13c-.33,0-8.39.12-17.86-5.4-5.76-3.35-12.32-10.36-14.33-15.29a.72.72,0,0,1,1.34-.54c1.88,4.6,8.29,11.42,13.72,14.58a36.2,36.2,0,0,0,17.1,5.21.72.72,0,0,1,.16,1.43Z"/><g class="cls-11"><path class="cls-7" d="M612.46,283c.72,7,2.9,50.29-53,43.78,0,0,34,20.61,42.57,63.22h0c-15.18,3.41-40.12,13-73.4,36-37.25,25.79-79.12,80.58-185.19,100.62C236,546.93,208.91,512.47,139.16,502.71c-46.29-6.48-64.33-5.62-87-2.59h0c-7.54-37.64,14.94-74.74,14.94-74.74-53.38,29.95-66-20.91-66-20.91s14.93,6.64,33.65-29.6C54.29,337,47.61,203.38,176.32,137.39c-3,1.56-56.71,55.12-83.41,126.79C70.76,323.64,59.14,402.1,31,411.18c0,0,20.5,9.15,63.1-13.62,0,0-24.87,63.1-22.85,79.73,0,0,40.57-2.77,83.23,5.92,38.44,7.83,85.31,34.67,180.7,24.22,66.29-7.27,134.25-52.72,171.77-89.42,36.1-35.32,75.76-43.18,75.76-43.18s-22.92-40.6-54.64-57c0,0,79.78,15.67,84.21-34.88C612.29,282.87,612.45,282.85,612.46,283Z"/><path class="cls-7" d="M347.56,526.56c-1.32.26-2.64.52-4,.77-72.94,13.79-108.57,2.5-146.3-9.44-17.58-5.57-35.76-11.33-58.21-14.47-44.37-6.21-62.63-5.81-86.8-2.58l-.67.09-.13-.67C45,468,60.62,435.8,65.24,427.22,48.79,436,34.58,437.83,23,432.82,5.69,425.35.41,404.86.36,404.65L0,403.21l1.35.6c.14.06,14.61,5.79,32.72-29.27,4.64-9,7.75-23.19,11.68-41.18,6.33-28.89,14.19-64.85,32.92-100.62,22.18-42.39,54-73.79,97.32-96l.67,1.28c-2.81,1.46-56.44,54.92-83.07,126.41-6.73,18.07-12.48,37.87-18,57C63.42,363.21,52,402.72,33.17,411.11c5.95,1.54,26,4.3,60.57-14.19l1.74-.93-.72,1.83c-.25.62-24.13,61.47-22.87,78.7,5.59-.31,43.51-2,82.72,6,9.25,1.88,19.19,4.93,29.71,8.15,34.92,10.69,78.38,24,150.77,16.06,66.61-7.29,133.93-52.62,171.34-89.22,32.71-32,68.78-41.64,75.15-43.15-3.5-5.9-25.21-41-53.85-55.82l-4.52-2.33,5,1c.46.09,46.31,8.82,69.78-8.83,8.06-6.06,12.63-14.61,13.58-25.41l.05-.66.76-.1a.81.81,0,0,1,.81.73h0c.52,5.06,1.27,22.49-10.7,34.29-8.75,8.63-22.28,12.18-40.23,10.58,8,5.69,33.32,26.26,40.49,62.06l.14.69-.69.16c-11.75,2.63-36.88,10.8-73.15,35.91-8.19,5.67-16.8,12.91-25.91,20.58C471.28,474,427.85,510.47,347.56,526.56ZM52.74,499.31c24-3.16,42.4-3.49,86.52,2.68,22.57,3.16,40.81,8.94,58.45,14.52,37.55,11.89,73,23.12,145.59,9.4l4-.77c80-16,123.2-52.39,154.93-79.07,9.14-7.69,17.77-15,26-20.67,35.78-24.76,60.83-33.15,73-36-8.6-41.34-41.76-61.85-42.09-62.06l-2.84-1.72,3.29.39c18.94,2.2,33-1.12,41.92-9.88,8.32-8.19,10.25-19.27,10.49-26.63a34.52,34.52,0,0,1-13.11,20C579.07,324.37,544,321,532.06,319.25c29.66,17.36,51.05,54.84,51.27,55.23l.49.87-1,.19h0c-.5.1-39.92,8.28-75.4,43-37.57,36.76-105.2,82.28-172.19,89.63-72.68,8-118.15-6-151.35-16.12-11-3.35-20.4-6.24-29.58-8.11-42.06-8.57-82.63-5.94-83-5.91l-.68,0-.09-.68c-1.85-15.22,18.06-67.62,22.19-78.27-41.25,21.54-61.17,13.11-62,12.74L29,411.07l1.79-.58c19.22-6.2,31-46.63,43.39-89.43,5.57-19.18,11.32-39,18.07-57.13,22.87-61.37,65.72-109.62,79.49-123.3-93.35,50.44-112.09,136.06-124.55,193-4,18.1-7.09,32.39-11.82,41.53C19.53,405.85,6.29,406.31,2.12,405.52c1.41,4.46,7.22,19.84,21.43,26,11.69,5.05,26.23,2.78,43.19-6.74l2.39-1.34-1.42,2.35C67.49,426.12,45.74,462.61,52.74,499.31Z"/></g><path class="cls-12" d="M345.08,361.2c-9.24,10.24-23,20.43-29.79,24.28l-.24,0c-13.57-1.61-54.15-13-52.46-26.49s22-22.08,42.09-25.87c0,0-28.61,16.35-26.79,22.36,2.92,9.68,26.08,18.24,35.22,18.14C327,373.49,345.08,361.2,345.08,361.2Z"/><path class="cls-7" d="M169.54,271.45s19.21-37,53.9-24.1C223.44,247.35,192.22,248.73,169.54,271.45Z"/><path class="cls-7" d="M166.89,275.08l2.05-3.95c.19-.37,19.89-37.42,54.74-24.42l3.15,1.17-3.36.15c-.31,0-31.22,1.64-53.44,23.9ZM202.24,246c-14.81,3-24.84,14.85-29.36,21.39C190.61,252,212.11,248,220.16,247A36.83,36.83,0,0,0,202.24,246Z"/><ellipse class="cls-7" cx="212.38" cy="316.43" rx="27.01" ry="35.96" transform="translate(-58.01 47.88) rotate(-11.33)"/><ellipse class="cls-10" cx="209.51" cy="302.14" rx="13.15" ry="14.57" transform="translate(-55.26 47.04) rotate(-11.33)"/><path class="cls-7" d="M405.62,224.16s-32-26.78-59-1.48C346.6,222.68,375.94,211.92,405.62,224.16Z"/><path class="cls-7" d="M409.47,226.49l-3.41-2.86c-.32-.27-32.77-26.87-59.92-1.45l-2.46,2.3,3.16-1.16c.29-.11,29.44-10.51,58.52,1.47Zm-43.82-13.21c14.81-3,28.65,4.13,35.34,8.43-22.3-7.39-43.69-2.82-51.51-.64A36.9,36.9,0,0,1,365.65,213.28Z"/><ellipse class="cls-7" cx="383.42" cy="282.17" rx="27.01" ry="35.96" transform="matrix(0.98, -0.2, 0.2, 0.98, -47.95, 80.81)"/><ellipse class="cls-10" cx="380.56" cy="267.88" rx="13.15" ry="14.57" transform="translate(-45.2 79.96) rotate(-11.33)"/><path class="cls-7" d="M314.05,446a100.43,100.43,0,0,1-45.53-11.1,1,1,0,0,1,.9-1.79c55,27.64,102.53-4.85,111.35-14.37a1,1,0,1,1,1.46,1.36C375.79,427.08,349.17,446,314.05,446Z"/></g></g></g></svg>